<?xml version="1.0" encoding="UTF-8" standalone="no"?>
<!DOCTYPE svg PUBLIC "-//W3C//DTD SVG 1.1//EN" "http://www.w3.org/Graphics/SVG/1.1/DTD/svg11.dtd">
<svg version="1.1" xmlns="http://www.w3.org/2000/svg" xmlns:xlink="http://www.w3.org/1999/xlink" preserveAspectRatio="xMidYMid meet" viewBox="0 0 363 74" width="363" height="74"><defs><path d="" id="b3ExEYQVCT"></path><path d="M0.92 75.17C193.56 75.17 313.95 75.17 362.11 75.17C363.19 75.17 363.34 73.62 362.28 73.41C344.81 70 316.61 64.48 302.95 61.8C284.56 58.2 267.35 50.12 252.84 38.27C243.47 30.62 257.26 41.88 252.84 38.27C223.29 14.14 184.21 5.11 147.08 13.83C132.42 17.27 133.44 17.03 115.3 21.29C88.34 27.62 60.05 25.18 34.56 14.33C30.08 12.42 18.86 7.64 0.92 0L0.92 75.17Z" id="i5VstaOAyw"></path></defs><g><g><g><g><use xlink:href="#b3ExEYQVCT" opacity="1" fill-opacity="0" stroke="#000000" stroke-width="1" stroke-opacity="1"></use></g></g><g><use xlink:href="#i5VstaOAyw" opacity="1" fill="#8262db" fill-opacity="1"></use></g></g></g></svg>