<?xml version="1.0" encoding="UTF-8" standalone="no"?>
<!DOCTYPE svg PUBLIC "-//W3C//DTD SVG 1.1//EN" "http://www.w3.org/Graphics/SVG/1.1/DTD/svg11.dtd">
<svg version="1.1" xmlns="http://www.w3.org/2000/svg" xmlns:xlink="http://www.w3.org/1999/xlink" preserveAspectRatio="xMidYMid meet" viewBox="0 0 306 220" width="306" height="220"><defs><path d="M307.36 214.32C283.35 217.49 268.35 219.48 262.35 220.27C247.65 222.21 233.36 214.57 226.8 201.27C220.95 189.41 219.24 185.94 214.61 176.55C204.03 155.07 183 140.67 159.15 138.55C135.82 136.47 112.6 134.41 91.35 132.52C64.08 130.09 43.6 106.53 45.01 79.19C45.42 71.07 44.58 87.49 45.1 77.31C46.35 52.96 35.95 29.46 17.09 14C14.81 12.14 9.11 7.47 0 0C20.49 0 122.94 0 307.36 0C307.36 128.59 307.36 200.03 307.36 214.32Z" id="b1RIlbKBCA"></path></defs><g><g><g><use xlink:href="#b1RIlbKBCA" opacity="1" fill="#8262db" fill-opacity="1"></use><g><use xlink:href="#b1RIlbKBCA" opacity="1" fill-opacity="0" stroke="#000000" stroke-width="1" stroke-opacity="0"></use></g></g></g></g></svg>